<svg xmlns="http://www.w3.org/2000/svg" width="512" height="512"><path d="M503.5 256c0 136.69-110.81 247.5-247.5 247.5S8.5 392.69 8.5 256 119.31 8.5 256 8.5 503.5 119.31 503.5 256z" fill="#f0f8ff"/><path d="M395.94 448.915H374.12v-.92c2.542-1.928 3.813-4.69 3.813-8.282v-8.545h-14.197v8.413c0 3.682 1.14 6.487 3.418 8.415v.92H345.33v-.92c2.542-2.016 3.812-4.952 3.813-8.808v-50.744l6.31-24.715c-2.453.614-4.25 1.578-5.39 2.892h-.92v-18.273l33.13-.13 10.12 40.226v50.48c0 4.12 1.184 7.144 3.55 9.072v.92m-18.01-32.34V391.6l-7.098-26.687-7.1 26.688v24.978h14.2m-36.81 32.34h-21.955v-.92c.964-.702 1.84-2.017 2.63-3.945.876-2.015 1.314-3.636 1.314-4.863V410.66l-13.934-28.79v56.66c0 4.294 1.227 7.45 3.68 9.465v.92h-21.953v-.92c2.454-2.103 3.68-4.6 3.68-7.493v-84.004c-.525-3.155-1.752-5.697-3.68-7.625v-.79l19.193.133 13.015 29.71-.13-29.842h18.14v.79c-2.365 2.19-3.548 5.082-3.548 8.675v81.9c0 3.68 1.183 6.53 3.55 8.545v.92m-54.557-.13h-21.823v-.79c2.367-2.366 3.55-4.776 3.55-7.23v-84.53c0-2.805-1.183-5.215-3.55-7.23v-.79h21.823v.79c-2.454 2.366-3.68 4.776-3.68 7.23v84.53c0 2.717 1.226 5.127 3.68 7.23v.79m-27.213-82.428h-.788c-2.104-2.278-5.128-3.418-9.07-3.418h-3.55v77.036c0 3.243 1.14 5.916 3.417 8.02v.92h-21.953v-.92c2.63-2.104 3.944-5.04 3.944-8.81V362.94h-4.337c-1.227 0-2.717.35-4.47 1.05-1.753.702-3.024 1.49-3.812 2.367h-.788v-3.418h-.132v-14.593h41.542v18.01m-45.354 82.558h-21.823v-.92c2.542-1.928 3.813-4.69 3.813-8.282v-8.545H181.79v8.413c0 3.682 1.14 6.487 3.418 8.415v.92h-21.823v-.92c2.542-2.016 3.813-4.952 3.813-8.808v-50.744l6.31-24.715c-2.454.614-4.25 1.578-5.39 2.892h-.92v-18.273l33.128-.13 10.123 40.226v50.48c0 4.12 1.182 7.144 3.548 9.072v.92m-18.01-32.34V391.6l-7.1-26.687-7.098 26.688v24.978h14.198m-37.335 32.208H116.06v-.79c2.453-2.19 3.68-4.6 3.68-7.23v-84.53c0-2.453-1.227-4.863-3.68-7.23v-.788h21.953v.788c-.876.614-1.71 1.71-2.497 3.287-.79 1.49-1.184 2.806-1.184 3.945v77.957h14.46c3.945 0 6.97-1.14 9.072-3.418h.79v18.01M281.595 36.136c-.072 0-.088.035-.105.053-.59.604 8.66 12.237 11.725 14.732 1.798 1.47 4.925 3.283 6.935 4.004 1.142.41 2.545.77 3.82 1.02 2.712 1.936 6.473 4.55 11.41 7.93-2.913-.514-5.947-.7-8.635-.418-5.122.538-17.08 4.07-18.476 5.47-.36.362 2.43.96 6.2 1.308 3.77.35 9.077.93 11.804 1.308 5.314.742 17.16.48 19.575-.444 3.302 2.432 6.496 5.04 9.55 7.798-4.504-1.566-9.715-2.287-16.067-2.277-8.593.018-10.678.852-6.23 2.488 1.698.622 6.6 2.864 10.914 4.972 4.314 2.11 10.1 4.297 12.823 4.867 2.726.57 6.975 1.055 9.448 1.1 1.39 1.624 2.75 3.27 4.056 4.972 1.713 2.188 3.336 4.468 4.894 6.777-2.356-1.692-4.996-3.183-7.825-4.397-6.04-2.587-16.444-5.324-17.22-4.527-.156.16 2.386 2.46 5.653 5.13 3.27 2.665 7.994 6.586 10.494 8.688 4.553 3.833 13.234 9.148 16.173 9.92.548.14 1.025.257 1.44.34 2.45 5.053 4.555 10.294 6.332 15.65-.808-1.045-1.73-2.157-2.878-3.403-4.143-4.5-7.065-6.69-13.582-10.18-4.573-2.452-8.322-4.135-8.322-3.743 0 .396 1.22 2.05 2.72 3.664 3.006 3.23 7.17 9.39 9.606 14.21 1.777 3.526 8.764 10.66 13.66 13.975 1.452.983 2.453 1.627 3.14 1.91 1.574 8.04 2.41 16.234 2.486 24.443-.467-3.207-1.227-6.586-2.277-9.447-1.904-5.18-3.165-7.028-8.454-12.3-3.417-3.405-7.14-7.107-8.27-8.27l-2.04-2.147.6 2.146c5.964 20.946 9.583 29.207 16.28 37.344 2.815 3.423 3.346 3.976 3.872 2.93-.208 3.004-.523 5.996-.942 8.977-.66 5.054-1.662 10.038-2.93 14.944.377-4.84-.188-10.322-1.755-14.733-1.535-4.33-11.472-21.19-12.09-20.517-.553.608 1.304 28.086 2.147 31.666 1.074 4.555 4.314 11.757 6.307 14.026.717.812 1.387 1.466 1.49 1.466.04 0 .24-.33.473-.76-2.952 8.2-6.727 16.086-11.227 23.475 1.95-6.105 2.55-14.53 1.23-22.166-2.147-12.426-5.75-20.795-5.784-13.398-.006 1.252-1.143 6.845-2.512 12.43-3.896 15.885-4.025 21.544-.68 30.2l.915 2.278 1.255-.942c-4.77 6.617-10.147 12.734-16.042 18.266 1.523-1.855 2.798-3.633 3.376-4.894 2.082-4.54 3.258-15.495 2.564-24.05l-.602-7.118-3.612 6.935c-1.993 3.82-4.47 8.157-5.495 9.63-4.372 6.276-5.79 10.77-6.23 19.89l-.365 8.322c-1.316.98-2.675 1.926-4.03 2.85-4.33 3.025-8.837 5.694-13.504 8.062 6.115-5.594 10.954-15.515 12.666-26.615l.68-4.344-5.024 4.84c-15.706 15.04-19.933 20.73-20.91 28.186-.3 2.302-.355 3.073.393 3.297-22.744 8.39-47.935 9.545-71.312 3.114-3.27-.86-6.486-1.87-9.657-3.035.98-.23 1.14-1.353.89-3.638-.715-6.492-3.073-9.968-14.55-21.59l-11.096-11.253.498 3.638c.28 2.007 1.448 6.734 2.59 10.494 2.488 8.196 6.593 14.365 12.143 18.345-7.135-3.386-13.964-7.546-20.334-12.325l.708-2.957c1.583-6.6-1.632-18.33-7.406-26.98-1.192-1.78-3.524-5.88-5.182-9.135l-3.01-5.94-.26 11.017c-.15 6.16.155 12.93.68 15.414.876 4.14 4.012 9.31 7.876 13.27-14.23-12.287-25.865-27.918-33.497-45.51-10.82-24.298-13.378-52.257-8.166-78.458.167 1.363.903.92 4.318-1.518 5.28-3.77 10.677-9.855 16.147-18.24 2.727-4.188 6.13-9.038 7.562-10.783 1.432-1.745 2.413-3.166 2.172-3.166-1.625 0-16.096 8.43-19.078 11.12-3.333 3.004-6.007 6.337-7.903 9.762 1.926-6.314 4.327-12.466 7.196-18.37 3.885-.06 17.337-8.36 24.233-14.97 1.614-1.55 4.896-4.353 7.3-6.203 4.877-3.756 4.31-4.048-3.898-2.068-7.807 1.884-14.925 5.45-20.177 9.84 3.088-4.81 6.525-9.36 10.232-13.66h.838c6.842-.023 14.51-2.064 21.747-5.732 3.634-1.842 8.418-4.03 10.6-4.868 5.317-2.038 3.686-2.914-5.392-2.93-7.194-.012-12.588.722-17.168 2.59 3.287-2.98 6.745-5.768 10.31-8.374.7.247 1.667.5 2.697.706v.027c5 .995 10.744.86 20.44-.47 4.992-.685 10.463-1.254 12.168-1.257 1.7-.005 3.088-.31 3.088-.68 0-.37-3.25-1.782-7.223-3.14-7.752-2.653-15.973-3.26-22.323-1.806 4.42-3.352 7.76-5.914 10.258-7.904h.105c6.138 0 10.964-2.49 17.14-8.82 6.433-6.59 10.202-12.312 7.303-11.095-.84.352-4.15 1.334-7.328 2.172-12.972 3.43-17.224 6.803-18.947 14.996-.16.774-.252 1.3-.262 1.7-4.994 3.126-11.05 7.137-14.863 9.736-25.965 17.477-45.31 44.75-53.256 76.835.045-2.16-.144-4.18-.6-6.15-1.19-5.15-4.48-13.12-6.177-15.048-.628-.715-2.406-3.46-3.952-6.098-2.735-4.665-2.78-4.752-2.8-2.146-.01 1.474-.327 6.91-.68 12.064-1.04 15.13 1.602 24.252 8.192 28.368 2.19 1.37 3.02 1.828 3.61 1.02-1.027 6.73-1.57 13.62-1.57 20.65v.706c-2.064-5.67-10.37-18.252-13.712-20.622-1.11-.788-3.36-2.556-4.998-3.952-2.286-1.946-2.836-2.173-2.382-.942.327.885 1.15 5.08 1.832 9.316 2.43 15.057 6.688 23.667 14.237 28.76 2.486 1.676 5.004 3.037 5.625 3.037.12 0 .242-.045.34-.13.798 6.728 2.105 13.31 3.847 19.68-2.495-3.813-5.474-7.107-8.27-8.846-1.59-.988-5.068-3.37-7.72-5.26-2.654-1.887-6.575-4.47-8.714-5.73l-3.873-2.278 4.92 10.18c2.71 5.6 6.23 12.194 7.825 14.655 3.538 5.456 9.444 10.25 15.36 12.406v-.052c3.873 1.41 5.54 1.97 6.125 1.36 2.738 6.51 5.98 12.76 9.657 18.66-.93-.87-1.842-1.657-2.643-2.25-5.196-3.855-14.43-8.19-19.76-9.265-2.554-.516-6.034-1.477-7.746-2.147-4.382-1.715-4.55-1.557-1.753 1.544 1.366 1.514 4.116 4.978 6.124 7.72 3.732 5.092 12.21 12.642 17.194 15.283 1.527.81 5.093 1.963 7.877 2.59 2.787.633 5.79 1.01 6.7.812.91-.2 2.308-.41 3.114-.418.364-.003.61-.012.784-.08 4.987 6.073 10.522 11.648 16.487 16.672-.323-.173-.662-.37-.967-.524-2.953-1.472-5.958-3.004-6.674-3.376-2.61-1.348-32.408-4.657-33.655-3.742-.138.1 3.913 3.103 8.95 6.673 9.1 6.445 11.537 7.682 21.04 10.704 5.685 1.808 14.26 1.585 19.183-.523l2.722-1.177c6.28 4.233 12.957 7.898 19.94 10.913-6.874-1.103-14.985-.853-23.107.81-4.4.9-10.716 2.07-14.053 2.644l-6.098 1.073 3.586 1.047c1.974.564 7.34 2.172 11.88 3.585 14.304 4.444 29.71 3.157 36.665-3.062l2.198-1.963c5.367 1.712 10.873 3.06 16.515 4.004-1.815.473-3.533.992-5.025 1.572-4.33 1.68-28.5 13.756-28.5 14.236 0 .494 16.035-.384 21.146-1.15 7.256-1.09 16.724-4.32 20.596-7.015 1.605-1.12 4.2-3.553 5.757-5.417l.6-.707c1.746.075 3.5.104 5.26.104 1.99 0 3.948-.007 5.916-.105l2.852 2.72c4.67 4.477 6.223 5.37 12.274 7.276 10.114 3.184 10.953 3.347 21.8 4.004 5.448.328 10.395.66 10.965.733.562.074 1.02-.038 1.02-.262 0-.55-7.356-4.302-9.944-5.076-1.137-.34-3.378-1.547-5-2.67-4.68-3.237-12.64-6.366-19.888-8.27 5.954-1.006 11.764-2.486 17.403-4.343.14 1.36 4.887 4.444 10.023 6.334 3.213 1.183 6.688 1.68 12.25 1.7 6.772.028 9.322-.423 19.68-3.558 10.555-3.195 11.544-3.66 9.132-4.187-12.79-2.807-26.182-4.895-31.273-4.895-3.005 0-7.543.657-11.594 1.57 8.865-3.66 17.202-8.36 24.94-13.948-1.32 1.35-1.43 2.257-.576 2.983.645.546 2.81 1.302 4.79 1.7 7.282 1.47 13.537.583 22.793-3.218 3.97-1.63 20.98-12.67 21.93-14.236.442-.737-3.454-.607-17.848.628-11.044.95-18.646 3.298-25.358 7.798 7.04-5.722 13.49-12.216 19.208-19.365-.145.36-.235.654-.235.863 0 .237 1.052.563 2.303.76 4.262.675 13.814-1.59 17.638-4.214 10.144-6.95 12.783-9.486 17.614-16.827 1.56-2.38 3.806-4.983 4.998-5.785 3.015-2.027 2.09-2.44-2.198-.994-1.99.674-5.61 1.65-8.087 2.173-6.68 1.413-17.835 7.405-23.265 12.535-.61.576-1.244 1.264-1.884 1.963 4.627-6.993 8.644-14.455 11.907-22.348.082 1.51 1.33 1.384 6.28-.47 5.89-2.207 11.438-6.293 14.787-10.94 2.866-3.976 13.694-25.52 12.824-25.516-.547.004-11.068 6.67-17.508 11.096-5.572 3.833-9.13 7.675-11.83 12.954 2.234-7.507 3.81-15.3 4.712-23.317.48 1.663 2.16.78 6.437-1.833 7.51-4.593 12.232-13.66 14.472-27.82.638-4.024 1.54-8.29 1.988-9.5.45-1.204.5-2.197.13-2.197-1.196 0-13.66 13.014-16.564 17.3-2.9 4.278-4.7 8.434-5.68 13.37.054-1.565.08-3.104.08-4.683 0-32.185-11.195-61.648-29.73-84.372h.08l-.55-.576c-8.677-10.512-18.91-19.565-30.358-26.746-2.454-1.18-7.404-3.99-12.038-6.595 1.057-.144 1.335-.61 1.335-1.65 0-5.964-6.093-12.243-14.132-14.577-2.888-.837-7.082-2.1-9.29-2.8-1.93-.61-3.634-1.052-4.134-1.047zm-81.598 3.298l-1.78.942c-.973.528-3.964 2.488-6.647 4.344-10.453 7.24-15.858 16.385-14.052 23.763.298 1.212.692 2.198.89 2.198 1.63 0 7.553-4.142 10.938-7.667 4.786-4.98 7.113-9.464 9.186-17.717l1.466-5.862zm113.42.392c-.47.455 2.294 10.64 3.873 14.29 1.912 4.417 9.39 12.767 13.27 14.864 1.635.886 3.338 1.543 3.794 1.413 1.198-.346 1.502-6.395.497-9.84-1.32-4.537-8.488-12.59-15.15-17.01-3.292-2.184-6.134-3.862-6.282-3.717zm30.28 13.504l.313 11.018c.264 9.84.527 11.51 2.54 15.937 1.326 2.914 3.86 6.5 6.175 8.69 2.16 2.04 4.205 3.685 4.528 3.69 1.273.02 2.448-7.408 1.99-12.485-.688-7.63-3.162-12.296-12.353-23.108l-3.193-3.742zm-175.026.393l-5.286 6.568c-2.914 3.62-6.267 8.57-7.432 10.967-2.36 4.852-3.108 11.924-1.858 17.82.42 1.978 1.166 3.613 1.622 3.613.458 0 2.778-1.98 5.182-4.423 6.716-6.823 9.613-16.91 8.348-29.022l-.576-5.522zm-26.64 23.474l-2.33 7.092c-6.32 19.128-6.524 25.184-1.178 34.465l1.702 2.93 1.805-2.197c3.332-3.97 5.565-11.39 5.575-18.502.008-5.11-.574-8.318-2.774-15.153l-2.8-8.636zm229.248 1.806c-.444-.04-1.557 2.05-2.905 5.626-2.282 6.04-2.544 7.79-2.59 16.094-.05 8.653.1 9.62 2.302 13.948 1.302 2.56 2.803 5.182 3.298 5.81.737.938 1.13.802 2.303-.68 2.137-2.705 4.858-10.688 4.84-14.263-.016-4.004-3.5-16.843-7.117-26.38-.034-.096-.066-.15-.13-.157zm19.392 31.456l-3.612 5.73c-1.984 3.132-4.808 8.15-6.28 11.175-2.503 5.148-2.676 6.073-2.67 14.393.003 5.642.377 9.575 1.047 10.782.58 1.047 1.326 1.885 1.596 1.885 1.647 0 5.942-3.76 7.407-6.49 3.575-6.662 4.463-14.747 3.218-29.232l-.706-8.244zM156.425 142.28c0-.236-3.365 2.843-7.46 6.856-8.032 7.878-10.54 12.057-12.822 21.276-.91 3.68-1.188 6.896-.81 9.97.302 2.49.842 4.502 1.176 4.502.74 0 8.293-10.32 10.572-14.445 1.486-2.683 3.987-9.982 8.008-23.343.724-2.412 1.335-4.578 1.335-4.815zm-2.774 30.854c-1.617.53-10.458 15.49-12.064 20.805-2.173 7.216-2.17 14.93.053 21.016 1.702 4.664 1.77 4.68 3.4 3.166 2.02-1.87 4.505-6.733 6.124-11.986.95-3.08 2.595-22.813 2.722-32.66.004-.28-.07-.394-.235-.34zm4.973 29.86c-.02-.008-.052.01-.08.026-.21.126-.602 1-1.386 2.748-1.864 4.145-4.867 18.48-4.867 23.187 0 1.793.635 6.103 1.387 9.604 1.03 4.816 2.02 7.226 4.16 9.788 1.56 1.866 3.183 3.162 3.586 2.905 1.424-.9 3.255-9.21 3.245-14.707-.005-3.48-1.104-9.985-2.905-17.403-1.582-6.514-2.89-12.97-2.93-14.367-.033-1.096-.063-1.726-.21-1.78zm57.914 72.28l.576 1.99c1.976 6.79 12.818 19.363 18.03 20.91 1.427.424 5.095.77 8.166.81l5.6.106-1.257-3.114c-3.01-7.38-7.854-11.333-18.293-14.97-3.14-1.095-7.278-2.82-9.238-3.846l-3.585-1.885zm79.557.185l-4.03 2.016c-2.236 1.103-6.46 2.815-9.37 3.794-2.91.98-6.702 2.723-8.4 3.873-3.847 2.61-9.71 10.125-9.71 12.43 0 1.622.382 1.697 6.49 1.336 5.068-.303 7.304-.863 10.18-2.592 5.012-3.006 13.043-13.527 14.316-18.71l.524-2.147z"/></svg>